# xmcd
#
# Track frame offsets: 
#        150
#        18137
#        32848
#        48513
#        60412
#        73349
#        87607
#        101043
#        114090
#        129854
#        143587
#        158582
#        171778
#        187426
#        200615
#        213577
#        226081
#        242135
#        256633
#        271226
#        290189
#        304205
#        316888
#        327791
#        349828
#
# Disc length: 4755 seconds
#
# Revision: 0
# Processed by: cddbd v1.5.2PL0 Copyright (c) Steve Scherf et al.
# Submitted via: ExactAudioCopy v1.0b3
#
DISCID=6d129119
DTITLE=Diversos - Cuiabano Lima - Caldas Country
DYEAR=2011
DGENRE=Sertanejo
TTITLE0=Mateus e Kauan - Ate o Amanhecer - Caldas Country 2011
TTITLE1=Jorge e Mateus - Eu So Quero Voce
TTITLE2=Gustavo Lima - Balada
TTITLE3=Fellipe Salles - Afoga o Ganso que o Boi e Manso
TTITLE4=Grupo Rhaas - Butecologia
TTITLE5=Anselmo e Rafael - Bebendo, Cantando e Chorando
TTITLE6=Michel Telo - Ai Se Eu Te Pego
TTITLE7=Guilherme e Santiago - Bolo Doido
TTITLE8=Mateus Proto e Gabriel - To Pedindo Arrego
TTITLE9=Fernando e Sorocaba - Pega Eu
TTITLE10=Maria Isabel - Ausencia
TTITLE11=Israel e Rodolfo - Do Jeito Que eu Queria
TTITLE12=Cristiano Araujo - Efeitos
TTITLE13=Grupo Rhaas - Detetive
TTITLE14=Gustavo Lima - Quem Tem Sorte e Sorteiro
TTITLE15=Thales e Thiago - Ta de Mal Comigo
TTITLE16=Humberto e Ronaldo - Chega Mais Pra Ca
TTITLE17=Thaeme e Thiago - Ai Que Do
TTITLE18=Pedro Paulo e Matheus - Amor de Verao
TTITLE19=Munhos e Mariano - Beberrao
TTITLE20=Grupo Rhaas - Pao com Mortadela
TTITLE21=Maria Cecilia e Rodolfo - O Troco
TTITLE22=Felipi e Carboni - Cao de Vagabundo
TTITLE23=Chitaozinho e Xororo - Evidencias
TTITLE24=Kleo Dibah e Rafael - Se eu me Entregar
EXTD=
EXTT0=
EXTT1=
EXTT2=
EXTT3=
EXTT4=
EXTT5=
EXTT6=
EXTT7=
EXTT8=
EXTT9=
EXTT10=
EXTT11=
EXTT12=
EXTT13=
EXTT14=
EXTT15=
EXTT16=
EXTT17=
EXTT18=
EXTT19=
EXTT20=
EXTT21=
EXTT22=
EXTT23=
EXTT24=
PLAYORDER=
